<svg width="18" height="18" viewBox="0 0 18 18" fill="none" xmlns="http://www.w3.org/2000/svg">
<g id="Insta">
<path id="Vector" d="M12.6615 1.73489C13.6469 1.73771 14.5912 2.11357 15.288 2.7804C15.9848 3.44723 16.3775 4.35084 16.3805 5.29387V12.4111C16.3775 13.3541 15.9848 14.2577 15.288 14.9246C14.5912 15.5914 13.6469 15.9673 12.6615 15.9701H5.22446C4.23904 15.9673 3.29482 15.5914 2.59802 14.9246C1.90123 14.2577 1.50847 13.3541 1.50552 12.4111V5.29387C1.50847 4.35084 1.90123 3.44723 2.59802 2.7804C3.29482 2.11357 4.23904 1.73771 5.22446 1.73489H12.6615ZM12.6615 0.311523H5.22446C2.36095 0.311523 0.0181885 2.55352 0.0181885 5.29387V12.4111C0.0181885 15.1514 2.36095 17.3934 5.22446 17.3934H12.6615C15.525 17.3934 17.8678 15.1514 17.8678 12.4111V5.29387C17.8678 2.55352 15.525 0.311523 12.6615 0.311523Z" fill="white"/>
<path id="Vector_2" d="M13.7771 5.29393C13.5565 5.29393 13.3408 5.23132 13.1573 5.114C12.9739 4.99669 12.8309 4.82995 12.7464 4.63487C12.662 4.43979 12.6399 4.22513 12.683 4.01803C12.726 3.81093 12.8323 3.6207 12.9883 3.47139C13.1443 3.32208 13.3431 3.2204 13.5595 3.17921C13.7759 3.13801 14.0002 3.15915 14.204 3.23996C14.4079 3.32077 14.5821 3.4576 14.7047 3.63317C14.8273 3.80874 14.8927 4.01516 14.8927 4.22631C14.893 4.3666 14.8644 4.50556 14.8084 4.63523C14.7525 4.76489 14.6703 4.88271 14.5667 4.98191C14.463 5.0811 14.3399 5.15973 14.2044 5.21328C14.0689 5.26682 13.9237 5.29423 13.7771 5.29393ZM8.94299 6.00542C9.5314 6.00542 10.1066 6.1724 10.5959 6.48525C11.0851 6.79809 11.4664 7.24275 11.6916 7.76299C11.9168 8.28324 11.9757 8.85569 11.8609 9.40798C11.7461 9.96026 11.4628 10.4676 11.0467 10.8657C10.6306 11.2639 10.1005 11.5351 9.5234 11.6449C8.94629 11.7548 8.34811 11.6984 7.80448 11.4829C7.26086 11.2674 6.79622 10.9025 6.46932 10.4343C6.14241 9.9661 5.96793 9.41564 5.96793 8.85254C5.96877 8.09768 6.28248 7.37398 6.84023 6.84021C7.39798 6.30645 8.15421 6.00623 8.94299 6.00542ZM8.94299 4.58206C8.06041 4.58206 7.19765 4.83252 6.46382 5.30176C5.72998 5.77101 5.15802 6.43797 4.82027 7.21829C4.48252 7.99862 4.39415 8.85727 4.56634 9.68566C4.73852 10.5141 5.16352 11.275 5.7876 11.8722C6.41168 12.4695 7.2068 12.8762 8.07242 13.041C8.93804 13.2057 9.83528 13.1212 10.6507 12.7979C11.4661 12.4747 12.163 11.9274 12.6533 11.2251C13.1437 10.5228 13.4054 9.69716 13.4054 8.85254C13.4054 7.71993 12.9352 6.63372 12.0984 5.83285C11.2615 5.03198 10.1265 4.58206 8.94299 4.58206Z" fill="white"/>
</g>
</svg>
