<svg width="79" height="46" viewBox="0 0 79 46" fill="none" xmlns="http://www.w3.org/2000/svg">
<g id="Union">
<path id="Union_2" fill-rule="evenodd" clip-rule="evenodd" d="M54.7024 2.44559C54.7024 9.11696 52.3292 15.515 48.1051 20.2325C43.8809 24.9498 38.1517 27.6 32.1779 27.6C26.204 27.6 20.4748 24.9498 16.2506 20.2325C12.0265 15.515 9.65336 9.11696 9.65336 2.44559C9.65336 2.44559 22.5245 7.94816 32.1779 2.44559C41.8312 -3.05699 54.7024 2.44559 54.7024 2.44559ZM62.2377 19.5489C61.0288 22.2215 59.5683 24.6481 57.9202 26.6952C56.8891 27.6999 56.0233 28.6421 55.2202 29.5159C51.0106 34.0965 48.5261 36.8 33.018 36.8C16.8374 36.8 14.7796 34.5811 9.7692 29.1784L9.76914 29.1783C9.06131 28.415 8.29456 27.5882 7.42073 26.6952C0.361405 19.4805 0 12.2166 0 3.06667H6.43557C6.43557 16.1 11.9682 22.3612 11.9682 22.3612C11.9682 22.3612 16.9291 30.6708 33.018 30.6708C49.107 30.6708 53.0935 22.3612 53.0935 22.3612C53.0935 22.3612 58.6153 13.0333 58.6153 2.3H65.3611C66.1939 2.0395 67.063 1.87885 67.9485 1.82561C70.1807 1.69143 72.3987 2.24683 74.2734 3.40937C76.1483 4.57193 77.5795 6.27965 78.355 8.279C79.1305 10.2783 79.2089 12.4627 78.5783 14.5079C77.9478 16.553 76.642 18.3499 74.855 19.6316C73.0679 20.9133 70.8947 21.6117 68.6582 21.6231C66.4217 21.6344 64.2408 20.9579 62.4397 19.6943C62.3717 19.6466 62.3043 19.5981 62.2377 19.5489ZM65.5783 7.87119C66.3624 7.3106 67.3032 6.97879 68.2858 6.91971C69.3681 6.85465 70.4435 7.12395 71.3525 7.68763C72.2615 8.25132 72.9556 9.07934 73.3316 10.0488C73.7076 11.0182 73.7455 12.0773 73.4398 13.0689C73.134 14.0606 72.5009 14.9318 71.6345 15.5532C70.768 16.1748 69.7143 16.5134 68.6299 16.5189C67.5453 16.5244 66.488 16.1965 65.6147 15.5837C65.0528 15.1896 64.5864 14.6912 64.2409 14.1226C64.8328 12.1003 65.2856 10.0019 65.5783 7.87119ZM3.61144 41.4H62.3532C63.4591 41.4 64.3557 42.4297 64.3557 43.7C64.3557 44.9703 63.4591 46 62.3532 46H3.61144C2.50546 46 1.60888 44.9703 1.60888 43.7C1.60888 42.4297 2.50546 41.4 3.61144 41.4Z" fill="#4BB79E"/>
</g>
</svg>
