<svg width="20" height="19" viewBox="0 0 20 19" fill="none" xmlns="http://www.w3.org/2000/svg">
<g id="Pintrest">
<path id="Vector" d="M9.96161 0.842285C4.9537 0.842285 0.893127 4.87588 0.893127 9.85051C0.893127 13.5383 3.12786 16.7072 6.32207 18.1027C6.29778 17.4753 6.31803 16.7193 6.47996 16.0356C6.65405 15.3037 7.64591 11.1253 7.64591 11.1253C7.64591 11.1253 7.35442 10.5503 7.35442 9.70172C7.35442 8.36657 8.13172 7.36923 9.10335 7.36923C9.92923 7.36923 10.326 7.98452 10.326 8.72046C10.326 9.54488 9.79563 10.7755 9.52438 11.9176C9.29767 12.8747 10.0061 13.6509 10.9575 13.6509C12.6741 13.6509 13.8319 11.4591 13.8319 8.86122C13.8319 6.88664 12.4919 5.41074 10.0588 5.41074C7.30989 5.41074 5.59336 7.44966 5.59336 9.72585C5.59336 10.51 5.82817 11.065 6.19252 11.4913C6.35851 11.6884 6.3828 11.7688 6.32207 11.994C6.27754 12.1589 6.18038 12.557 6.13585 12.7179C6.07512 12.9471 5.88889 13.0275 5.68242 12.9431C4.41526 12.4283 3.82419 11.053 3.82419 9.50064C3.82419 6.94295 5.9982 3.87452 10.3057 3.87452C13.7671 3.87452 16.0464 6.36385 16.0464 9.03414C16.0464 12.5691 14.0667 15.2072 11.1519 15.2072C10.1721 15.2072 9.25314 14.6804 8.93736 14.0852C8.93736 14.0852 8.41107 16.1603 8.29771 16.5624C8.10743 17.2582 7.73093 17.9499 7.38681 18.4928C8.22155 18.7374 9.08726 18.862 9.95757 18.8628C14.9655 18.8628 19.0261 14.8292 19.0261 9.85454C19.0261 4.8799 14.9695 0.842285 9.96161 0.842285Z" fill="white"/>
</g>
</svg>
