<svg width="20" height="16" viewBox="0 0 20 16" fill="none" xmlns="http://www.w3.org/2000/svg">
<g id="Twiter">
<path id="Vector" d="M19.8761 2.0521C19.1587 2.36188 18.3997 2.56597 17.623 2.65792C18.4392 2.18292 19.0531 1.4283 19.3494 0.535584C18.5777 0.984043 17.7348 1.2987 16.8568 1.46608C16.4871 1.08103 16.0425 0.774705 15.5499 0.565735C15.0574 0.356764 14.5272 0.249511 13.9917 0.250495C11.8235 0.250495 10.0688 1.96895 10.0688 4.08732C10.0672 4.38198 10.1012 4.67576 10.17 4.96239C8.61519 4.88996 7.09273 4.49579 5.7 3.80511C4.30728 3.11443 3.07496 2.14244 2.08188 0.95134C1.73348 1.53503 1.54923 2.201 1.54838 2.87965C1.54838 4.21007 2.24683 5.38607 3.30147 6.07503C2.67662 6.0603 2.06458 5.89594 1.51731 5.59592V5.64344C1.51731 7.50444 2.87196 9.05263 4.66489 9.40504C4.32773 9.49436 3.9803 9.53961 3.63137 9.53966C3.38378 9.54009 3.13675 9.51622 2.89388 9.46839C3.39231 10.9928 4.84299 12.1015 6.56141 12.1332C5.16507 13.2026 3.45073 13.7807 1.68783 13.7764C1.37491 13.7759 1.06229 13.7574 0.751526 13.721C2.54492 14.859 4.62961 15.461 6.75744 15.4553C13.9833 15.4553 17.931 9.60697 17.931 4.53476C17.931 4.36845 17.9266 4.20215 17.9186 4.03981C18.6848 3.49816 19.3477 2.82506 19.8761 2.0521Z" fill="white"/>
</g>
</svg>
