<svg width="177" height="130" viewBox="0 0 177 130" fill="none" xmlns="http://www.w3.org/2000/svg">
<path d="M43.4916 129.378C36.0766 129.378 29.5884 127.987 24.0271 125.207C18.4657 122.117 13.9858 118.101 10.5872 113.157C7.4976 108.214 5.0259 102.344 3.17213 95.5464C1.31836 88.7492 0.391479 81.6431 0.391479 74.228C0.391479 59.0889 4.2535 44.8766 11.9775 31.5913C20.0106 18.3059 32.369 7.80122 49.053 0.0771613L53.2239 8.41913C44.573 12.4356 36.849 18.3059 30.0518 26.03C23.5636 33.4451 19.7016 41.3236 18.4657 49.6656C16.612 56.1537 16.4575 62.4874 18.0023 68.6667C24.7995 61.2516 33.9138 57.5441 45.3454 57.5441C55.8501 57.5441 64.5011 60.7882 71.2982 67.2764C78.0954 73.4556 81.4939 82.1065 81.4939 93.2292C81.4939 104.043 77.9409 112.848 70.8348 119.645C63.7286 126.134 54.6143 129.378 43.4916 129.378ZM138.961 129.378C131.546 129.378 125.058 127.987 119.496 125.207C113.935 122.117 109.455 118.101 106.056 113.157C102.967 108.214 100.495 102.344 98.6413 95.5464C96.7876 88.7492 95.8607 81.6431 95.8607 74.228C95.8607 59.0889 99.7227 44.8766 107.447 31.5913C115.48 18.3059 127.838 7.80122 144.522 0.0771613L148.693 8.41913C140.042 12.4356 132.318 18.3059 125.521 26.03C119.033 33.4451 115.171 41.3236 113.935 49.6656C112.081 56.1537 111.927 62.4874 113.471 68.6667C120.269 61.2516 129.383 57.5441 140.815 57.5441C151.319 57.5441 159.97 60.7882 166.767 67.2764C173.565 73.4556 176.963 82.1065 176.963 93.2292C176.963 104.043 173.41 112.848 166.304 119.645C159.198 126.134 150.083 129.378 138.961 129.378Z" fill="#4BB79E" fill-opacity="0.2"/>
</svg>
