<svg width="28" height="26" viewBox="0 0 28 26" fill="none" xmlns="http://www.w3.org/2000/svg">
<g id="Group">
<path id="Vector" d="M5.66663 6.33334H24.0533C24.4259 6.33336 24.7943 6.41144 25.1348 6.56255C25.4754 6.71366 25.7804 6.93446 26.0304 7.2107C26.2804 7.48694 26.4697 7.81249 26.5862 8.16638C26.7027 8.52027 26.7437 8.89463 26.7066 9.26534L25.9066 17.2653C25.8408 17.9234 25.5329 18.5334 25.0426 18.9772C24.5523 19.4209 23.9146 19.6667 23.2533 19.6667H10.52C9.90326 19.6669 9.30553 19.4534 8.82855 19.0625C8.35158 18.6716 8.02483 18.1274 7.90396 17.5227L5.66663 6.33334Z" stroke="#12463A" stroke-width="2" stroke-linejoin="round"/>
<path id="Vector_2" d="M20.3333 25H23M5.66663 6.33333L4.58663 2.00933C4.5144 1.721 4.3479 1.46508 4.11357 1.28221C3.87924 1.09934 3.59053 1.00001 3.29329 1H1.66663L5.66663 6.33333ZM9.66663 25H12.3333H9.66663Z" stroke="#12463A" stroke-width="2" stroke-linecap="round" stroke-linejoin="round"/>
</g>
</svg>
