<svg width="28" height="26" viewBox="0 0 28 26" fill="none" xmlns="http://www.w3.org/2000/svg">
<g id="Group">
<path id="Vector" d="M5 6.33334H23.3867C23.7592 6.33335 24.1277 6.41143 24.4682 6.56254C24.8087 6.71366 25.1138 6.93445 25.3638 7.21069C25.6138 7.48693 25.8031 7.81248 25.9196 8.16637C26.0361 8.52026 26.0771 8.89463 26.04 9.26534L25.24 17.2653C25.1742 17.9233 24.8663 18.5334 24.376 18.9772C23.8856 19.4209 23.248 19.6666 22.5867 19.6667H9.85333C9.23663 19.6669 8.6389 19.4534 8.16193 19.0625C7.68495 18.6716 7.35821 18.1274 7.23733 17.5227L5 6.33334Z" stroke="#F3F3F3" stroke-width="2" stroke-linejoin="round"/>
<path id="Vector_2" d="M19.6667 25H22.3333M5 6.33333L3.92 2.00933C3.84777 1.721 3.68127 1.46508 3.44694 1.28221C3.21262 1.09934 2.9239 1.00001 2.62667 1H1L5 6.33333ZM9 25H11.6667H9Z" stroke="#F3F3F3" stroke-width="2" stroke-linecap="round" stroke-linejoin="round"/>
</g>
</svg>
