<svg width="51" height="51" viewBox="0 0 51 51" fill="none" xmlns="http://www.w3.org/2000/svg">
<g id="96_Emoji">
<path id="Vector" d="M25.2269 0C20.2375 0 15.3601 1.47953 11.2116 4.25149C7.06304 7.02345 3.82965 10.9633 1.92029 15.5729C0.0109306 20.1826 -0.488645 25.2548 0.484738 30.1484C1.45812 35.0419 3.86075 39.5369 7.38878 43.0649C10.9168 46.593 15.4118 48.9956 20.3053 49.969C25.1989 50.9424 30.2712 50.4428 34.8808 48.5334C39.4904 46.6241 43.4303 43.3907 46.2022 39.2421C48.9742 35.0936 50.4537 30.2162 50.4537 25.2268C50.4462 18.5386 47.7859 12.1264 43.0566 7.39709C38.3273 2.66777 31.9151 0.00753436 25.2269 0ZM25.2269 45.867C21.1446 45.867 17.1541 44.6565 13.7598 42.3885C10.3655 40.1205 7.72003 36.897 6.15783 33.1255C4.59562 29.354 4.18688 25.204 4.98328 21.2001C5.77969 17.1963 7.74547 13.5186 10.6321 10.632C13.5186 7.74546 17.1964 5.77968 21.2002 4.98327C25.204 4.18687 29.354 4.59561 33.1255 6.15781C36.897 7.72002 40.1206 10.3655 42.3885 13.7598C44.6565 17.154 45.867 21.1446 45.867 25.2268C45.861 30.6991 43.6845 35.9456 39.8151 39.815C35.9456 43.6845 30.6991 45.861 25.2269 45.867Z" fill="#12463A"/>
<path id="Vector_2" d="M34.4003 13.76C33.0396 13.76 31.7094 14.1635 30.578 14.9195C29.4465 15.6755 28.5647 16.75 28.044 18.0072C27.5232 19.2643 27.387 20.6477 27.6525 21.9823C27.9179 23.3169 28.5732 24.5428 29.5354 25.505C30.4976 26.4672 31.7235 27.1225 33.0581 27.3879C34.3927 27.6534 35.776 27.5171 37.0332 26.9964C38.2904 26.4757 39.3649 25.5938 40.1209 24.4624C40.8769 23.331 41.2804 22.0008 41.2804 20.6401C41.2784 18.816 40.5529 17.0672 39.2631 15.7773C37.9732 14.4875 36.2244 13.762 34.4003 13.76ZM34.4003 22.9334C33.9467 22.9334 33.5033 22.7989 33.1262 22.5469C32.749 22.2949 32.455 21.9367 32.2814 21.5177C32.1079 21.0986 32.0624 20.6375 32.1509 20.1926C32.2394 19.7477 32.4578 19.3391 32.7786 19.0183C33.0993 18.6976 33.508 18.4791 33.9528 18.3907C34.3977 18.3022 34.8589 18.3476 35.2779 18.5212C35.697 18.6948 36.0552 18.9887 36.3071 19.3659C36.5591 19.7431 36.6936 20.1865 36.6936 20.6401C36.6932 21.2482 36.4515 21.8312 36.0215 22.2612C35.5915 22.6912 35.0084 22.933 34.4003 22.9334Z" fill="#12463A"/>
<path id="Vector_3" d="M22.9335 20.6401C22.9335 19.2793 22.5299 17.9491 21.774 16.8177C21.018 15.6863 19.9434 14.8045 18.6863 14.2837C17.4291 13.763 16.0458 13.6267 14.7112 13.8922C13.3766 14.1577 12.1507 14.8129 11.1885 15.7751C10.2263 16.7373 9.57101 17.9632 9.30554 19.2978C9.04007 20.6324 9.17632 22.0158 9.69706 23.273C10.2178 24.5301 11.0996 25.6046 12.231 26.3606C13.3625 27.1166 14.6927 27.5201 16.0534 27.5201C17.8775 27.5181 19.6263 26.7926 20.9161 25.5028C22.206 24.213 22.9315 22.4642 22.9335 20.6401ZM13.7601 20.6401C13.7601 20.1865 13.8946 19.7431 14.1466 19.3659C14.3986 18.9887 14.7567 18.6948 15.1758 18.5212C15.5949 18.3476 16.056 18.3022 16.5009 18.3907C16.9458 18.4792 17.3544 18.6976 17.6752 19.0183C17.9959 19.3391 18.2143 19.7477 18.3028 20.1926C18.3913 20.6375 18.3459 21.0986 18.1723 21.5177C17.9987 21.9367 17.7047 22.2949 17.3276 22.5469C16.9504 22.7989 16.507 22.9334 16.0534 22.9334C15.4453 22.933 14.8622 22.6912 14.4322 22.2612C14.0023 21.8312 13.7605 21.2482 13.7601 20.6401Z" fill="#12463A"/>
<path id="Vector_4" d="M33.3209 32.3778C30.8297 33.706 28.0498 34.4006 25.2266 34.4002C22.4035 34.3998 19.6238 33.7044 17.133 32.3755C16.8668 32.2304 16.5746 32.1394 16.2731 32.1079C15.9716 32.0764 15.6668 32.1049 15.3764 32.1918C15.086 32.2788 14.8157 32.4224 14.5811 32.6144C14.3465 32.8064 14.1523 33.043 14.0097 33.3105C13.8671 33.578 13.7789 33.8711 13.7503 34.1729C13.7216 34.4747 13.753 34.7792 13.8427 35.0687C13.9324 35.3583 14.0786 35.6272 14.2728 35.86C14.4671 36.0927 14.7055 36.2847 14.9743 36.4247C18.13 38.1073 21.6513 38.9872 25.2275 38.9868C28.8037 38.9865 32.3248 38.1058 35.4801 36.4225C36.0106 36.133 36.4053 35.6458 36.5784 35.0668C36.7515 34.4878 36.689 33.8639 36.4045 33.3308C36.1199 32.7976 35.6364 32.3984 35.0591 32.22C34.4817 32.0415 33.8566 32.0982 33.3209 32.3778Z" fill="#12463A"/>
</g>
</svg>
