<svg width="56" height="47" viewBox="0 0 56 47" fill="none" xmlns="http://www.w3.org/2000/svg">
<g id="48_Like">
<path id="Vector" d="M47.7237 16.6336H41.0609C40.6382 16.6334 40.2214 16.5352 39.8432 16.3466C39.4649 16.158 39.1356 15.8842 38.8812 15.5467C38.6267 15.2092 38.4541 14.8173 38.3769 14.4018C38.2996 13.9862 38.3199 13.5585 38.4361 13.1521L39.3633 9.90832C39.6743 8.8192 39.7283 7.67275 39.521 6.55923C39.3137 5.4457 38.8508 4.39549 38.1686 3.49126C37.4865 2.58703 36.6039 1.85346 35.5901 1.3483C34.5763 0.843132 33.4591 0.580159 32.3265 0.580078C31.1909 0.582796 30.0714 0.8485 29.0557 1.35636C28.04 1.86422 27.1557 2.60043 26.4722 3.50728L15.7265 17.834C15.4713 18.1726 15.1412 18.4475 14.7619 18.6371C14.3827 18.8267 13.9647 18.926 13.5407 18.927H13.3376C12.8 17.397 11.7381 16.1069 10.34 15.2853C8.94191 14.4637 7.29807 14.1637 5.69991 14.4385C4.10174 14.7133 2.65251 15.5451 1.60916 16.7865C0.565805 18.0279 -0.00426425 19.5986 2.40181e-05 21.2202V39.5671C-0.00353957 41.0649 0.483001 42.5228 1.38541 43.7182C2.28781 44.9137 3.55653 45.7811 4.99798 46.1881C6.43943 46.5951 7.97445 46.5193 9.36883 45.9724C10.7632 45.4255 11.9404 44.4374 12.7207 43.1589L15.807 45.2165C17.0084 46.0205 18.4218 46.4489 19.8674 46.4472H40.6578C41.9476 46.4457 43.2142 46.1039 44.3298 45.4565C45.4453 44.8091 46.3704 43.8788 47.0115 42.7596L54.0752 30.3982C54.7073 29.2918 55.04 28.0397 55.0405 26.7655V23.9515C55.0382 22.0115 54.2666 20.1517 52.895 18.7798C51.5234 17.408 49.6636 16.6361 47.7237 16.6336ZM9.17346 39.5671C9.16975 40.1729 8.9265 40.7526 8.49682 41.1797C8.06713 41.6068 7.48593 41.8465 6.88012 41.8465C6.27431 41.8465 5.69311 41.6068 5.26343 41.1797C4.83375 40.7526 4.5905 40.1729 4.58679 39.5671V21.2202C4.5905 20.6144 4.83375 20.0347 5.26343 19.6077C5.69311 19.1806 6.27431 18.9409 6.88012 18.9409C7.48593 18.9409 8.06713 19.1806 8.49682 19.6077C8.9265 20.0347 9.16975 20.6144 9.17346 21.2202V39.5671ZM50.4538 26.7655C50.4531 27.2411 50.3289 27.7085 50.0932 28.1216L43.0295 40.4853C42.7899 40.9027 42.4445 41.2495 42.0281 41.491C41.6117 41.7324 41.1391 41.8598 40.6578 41.8604H19.8676C19.3286 41.8614 18.8016 41.7015 18.354 41.4013L13.7601 38.3396V23.4878C14.8565 23.4559 15.9317 23.1788 16.9068 22.6767C17.882 22.1746 18.7322 21.4604 19.395 20.5865L30.1406 6.25974C30.405 5.93663 30.7377 5.67616 31.1148 5.49709C31.4919 5.31802 31.904 5.22481 32.3215 5.22417C32.739 5.22353 33.1514 5.31547 33.5291 5.49338C33.9067 5.67129 34.2402 5.93073 34.5056 6.25303C34.7618 6.58968 34.9356 6.98171 35.013 7.39767C35.0904 7.81363 35.0693 8.24194 34.9512 8.64823L34.0241 11.8924C33.7131 12.9815 33.6592 14.1279 33.8665 15.2413C34.0739 16.3548 34.5368 17.405 35.2189 18.3092C35.901 19.2134 36.7837 19.9469 37.7974 20.452C38.8111 20.9572 39.9283 21.2202 41.0609 21.2202H47.7237C48.4477 21.2212 49.1417 21.5094 49.6535 22.0214C50.1653 22.5334 50.4531 23.2275 50.4538 23.9515V26.7655Z" fill="#12463A"/>
<path id="Vector_2" d="M43.5738 25.8069H29.8136C29.5113 25.8051 29.2116 25.863 28.9317 25.9775C28.6518 26.0919 28.3974 26.2605 28.1829 26.4736C27.9685 26.6868 27.7983 26.9402 27.6821 27.2194C27.566 27.4985 27.5062 27.7979 27.5062 28.1003C27.5062 28.4026 27.566 28.702 27.6821 28.9812C27.7983 29.2603 27.9685 29.5138 28.1829 29.7269C28.3974 29.94 28.6518 30.1087 28.9317 30.2231C29.2116 30.3375 29.5113 30.3955 29.8136 30.3936H43.5738C43.8761 30.3955 44.1758 30.3375 44.4557 30.2231C44.7356 30.1087 44.9901 29.94 45.2045 29.7269C45.4189 29.5138 45.5891 29.2603 45.7053 28.9812C45.8214 28.702 45.8812 28.4026 45.8812 28.1003C45.8812 27.7979 45.8214 27.4985 45.7053 27.2194C45.5891 26.9402 45.4189 26.6868 45.2045 26.4736C44.9901 26.2605 44.7356 26.0919 44.4557 25.9775C44.1758 25.863 43.8761 25.8051 43.5738 25.8069Z" fill="#12463A"/>
</g>
</svg>
