<svg width="52" height="47" viewBox="0 0 52 47" fill="none" xmlns="http://www.w3.org/2000/svg">
<g id="45_Love">
<path id="Vector" d="M46.8643 5.28351C44.1246 2.53725 40.4788 0.882205 36.608 0.627483C32.7372 0.37276 28.906 1.53578 25.83 3.89933C22.5965 1.41731 18.5398 0.258219 14.4831 0.657208C10.4264 1.0562 6.67332 2.98339 3.98528 6.04781C1.29724 9.11224 -0.124467 13.0844 0.00855919 17.1586C0.141585 21.2327 1.81939 25.1037 4.7016 27.9862L20.9174 44.202C21.5562 44.8411 22.3146 45.348 23.1493 45.6938C23.9841 46.0397 24.8788 46.2177 25.7824 46.2177C26.6859 46.2177 27.5806 46.0397 28.4154 45.6938C29.2501 45.348 30.0085 44.8411 30.6473 44.202L46.8643 27.9862C49.8706 24.9734 51.559 20.8911 51.559 16.6349C51.559 12.3787 49.8706 8.29634 46.8643 5.28351ZM43.6214 24.7433L27.4033 40.9591C26.9668 41.3763 26.3862 41.6091 25.7824 41.6091C25.1786 41.6091 24.598 41.3763 24.1615 40.9591L7.94452 24.7433C5.88963 22.6838 4.69422 19.9203 4.60038 17.0125C4.50654 14.1047 5.52128 11.2699 7.4391 9.0822C9.35693 6.89448 12.0345 5.51736 14.9296 5.22973C17.8246 4.94209 20.7208 5.76544 23.0316 7.53304C23.8202 8.13987 24.7872 8.46899 25.7822 8.4692C26.7772 8.4694 27.7444 8.14066 28.5332 7.53415C30.8435 5.76353 33.7406 4.93765 36.6373 5.22397C39.534 5.51028 42.2134 6.88736 44.1324 9.07602C46.0513 11.2647 47.0662 14.1011 46.9714 17.0104C46.8765 19.9196 45.6789 22.6844 43.6214 24.7433Z" fill="#F3F3F3"/>
<path id="Vector_2" d="M32.663 11.9329C30.8389 11.9348 29.0901 12.6603 27.8003 13.9502C26.5104 15.24 25.785 16.9888 25.783 18.8129C25.7811 19.1153 25.8391 19.415 25.9535 19.6949C26.0679 19.9747 26.2365 20.2292 26.4497 20.4437C26.6628 20.6581 26.9163 20.8283 27.1954 20.9444C27.4746 21.0606 27.774 21.1203 28.0763 21.1203C28.3787 21.1203 28.678 21.0606 28.9572 20.9444C29.2364 20.8283 29.4898 20.6581 29.7029 20.4437C29.9161 20.2292 30.0847 19.9747 30.1991 19.6949C30.3135 19.415 30.3715 19.1153 30.3696 18.8129C30.3696 18.2047 30.6113 17.6213 31.0414 17.1913C31.4715 16.7612 32.0548 16.5195 32.663 16.5195C33.2713 16.5195 33.8546 16.7612 34.2847 17.1913C34.7148 17.6213 34.9564 18.2047 34.9564 18.8129C34.9546 19.1153 35.0125 19.415 35.1269 19.6949C35.2414 19.9747 35.41 20.2292 35.6231 20.4437C35.8363 20.6581 36.0897 20.8283 36.3689 20.9444C36.648 21.0606 36.9474 21.1203 37.2497 21.1203C37.5521 21.1203 37.8515 21.0606 38.1306 20.9444C38.4098 20.8283 38.6632 20.6581 38.8764 20.4437C39.0895 20.2292 39.2581 19.9747 39.3726 19.6949C39.487 19.415 39.5449 19.1153 39.5431 18.8129C39.5411 16.9888 38.8156 15.24 37.5258 13.9502C36.2359 12.6603 34.4871 11.9348 32.663 11.9329Z" fill="#F3F3F3"/>
</g>
</svg>
