<svg width="16" height="12" viewBox="0 0 16 12" fill="none" xmlns="http://www.w3.org/2000/svg">
<g id="80_Mail">
<path id="Vector" d="M12.3651 0.603516H3.25396C2.39126 0.60453 1.5642 0.947682 0.954182 1.5577C0.344166 2.16771 0.00101403 2.99478 0 3.85747L0 7.76223C0.00101403 8.62492 0.344166 9.45199 0.954182 10.062C1.5642 10.672 2.39126 11.0152 3.25396 11.0162H12.3651C13.2278 11.0152 14.0548 10.672 14.6648 10.062C15.2749 9.45199 15.618 8.62492 15.619 7.76223V3.85747C15.618 2.99478 15.2749 2.16771 14.6648 1.5577C14.0548 0.947682 13.2278 0.60453 12.3651 0.603516ZM12.3651 1.90509C12.7062 1.90712 13.0408 1.99956 13.3346 2.17298L8.15906 5.46794C8.05468 5.53323 7.93409 5.56796 7.81097 5.56818C7.68784 5.56841 7.56713 5.53412 7.4625 5.46921L2.28453 2.17298C2.57831 1.99956 2.91281 1.90712 3.25396 1.90509H12.3651ZM14.3175 7.76223C14.3169 8.27986 14.111 8.77612 13.745 9.14214C13.379 9.50816 12.8827 9.71404 12.3651 9.71461H3.25396C2.73633 9.71404 2.24006 9.50816 1.87404 9.14214C1.50803 8.77612 1.30215 8.27986 1.30158 7.76223V3.85747C1.30324 3.62343 1.34739 3.39165 1.43187 3.17338L6.76597 6.56869C7.07919 6.76491 7.44137 6.86888 7.81098 6.86865C8.18059 6.86843 8.54264 6.76402 8.85562 6.56742L14.1872 3.17338C14.2717 3.39165 14.3158 3.62344 14.3175 3.85747V7.76223Z" fill="#FEFEFE"/>
</g>
</svg>
