<svg width="16" height="16" viewBox="0 0 16 16" fill="none" xmlns="http://www.w3.org/2000/svg">
<g id="47_Share">
<path id="Vector" d="M12.3848 9.11116C11.8925 9.11286 11.4071 9.22683 10.9655 9.44439C10.5239 9.66194 10.1377 9.97736 9.83633 10.3666L6.40371 8.65013C6.48206 8.37666 6.52375 8.09401 6.52769 7.80958C6.52375 7.52514 6.48206 7.24249 6.40371 6.96903L9.83633 5.25252C10.3132 5.8507 10.9866 6.26057 11.7369 6.40939C12.4873 6.55822 13.2661 6.43637 13.9352 6.06547C14.6042 5.69457 15.1202 5.09862 15.3916 4.38339C15.6629 3.66815 15.6721 2.8799 15.4175 2.15855C15.1628 1.43719 14.6608 0.829394 14.0006 0.443027C13.3404 0.056659 12.5646 -0.0832829 11.8109 0.0480392C11.0573 0.179361 10.3746 0.573453 9.88396 1.16037C9.39332 1.74728 9.12649 2.48905 9.13084 3.25402C9.13471 3.53639 9.17579 3.81703 9.25304 4.08866L5.81831 5.80636C5.40124 5.27247 4.82792 4.88206 4.17833 4.68961C3.52874 4.49717 2.83529 4.51227 2.1947 4.73282C1.55411 4.95338 0.998329 5.36837 0.604897 5.91993C0.211465 6.47148 0 7.13208 0 7.80958C0 8.48707 0.211465 9.14767 0.604897 9.69923C0.998329 10.2508 1.55411 10.6658 2.1947 10.8863C2.83529 11.1069 3.52874 11.122 4.17833 10.9295C4.82792 10.7371 5.40124 10.3467 5.81831 9.81279L9.25306 11.5304C9.17582 11.802 9.13473 12.0827 9.13087 12.365C9.13085 13.0086 9.32168 13.6378 9.67922 14.1729C10.0368 14.708 10.545 15.1251 11.1395 15.3714C11.7341 15.6177 12.3884 15.6821 13.0196 15.5566C13.6508 15.4311 14.2306 15.1212 14.6857 14.6661C15.1408 14.211 15.4507 13.6312 15.5763 13C15.7019 12.3688 15.6374 11.7145 15.3911 11.1199C15.1448 10.5253 14.7278 10.0171 14.1927 9.65954C13.6575 9.30199 13.0284 9.11115 12.3848 9.11116ZM12.3848 1.30164C12.771 1.30164 13.1484 1.41614 13.4695 1.63068C13.7906 1.84521 14.0408 2.15013 14.1886 2.50688C14.3364 2.86363 14.375 3.25618 14.2997 3.63491C14.2244 4.01363 14.0384 4.36151 13.7654 4.63456C13.4923 4.9076 13.1444 5.09355 12.7657 5.16888C12.387 5.24422 11.9944 5.20555 11.6377 5.05778C11.2809 4.91001 10.976 4.65977 10.7615 4.3387C10.547 4.01764 10.4324 3.64016 10.4324 3.25402C10.433 2.73639 10.6389 2.24013 11.0049 1.87411C11.3709 1.50809 11.8672 1.30221 12.3848 1.30164ZM3.27371 9.76196C2.88756 9.76196 2.51009 9.64745 2.18902 9.43292C1.86796 9.21839 1.61771 8.91347 1.46994 8.55672C1.32217 8.19997 1.28351 7.80741 1.35884 7.42869C1.43418 7.04996 1.62012 6.70208 1.89317 6.42904C2.16621 6.15599 2.51409 5.97005 2.89282 5.89471C3.27154 5.81938 3.6641 5.85804 4.02085 6.00581C4.3776 6.15359 4.68252 6.40383 4.89705 6.72489C5.11158 7.04596 5.22609 7.42343 5.22609 7.80958C5.22552 8.32721 5.01964 8.82347 4.65362 9.18949C4.2876 9.55551 3.79134 9.76139 3.27371 9.76196ZM12.3848 14.3175C11.9987 14.3175 11.6212 14.203 11.3001 13.9885C10.9791 13.774 10.7288 13.469 10.5811 13.1123C10.4333 12.7555 10.3946 12.363 10.47 11.9842C10.5453 11.6055 10.7312 11.2576 11.0043 10.9846C11.2773 10.7116 11.6252 10.5256 12.0039 10.4503C12.3827 10.3749 12.7752 10.4136 13.132 10.5614C13.4887 10.7091 13.7936 10.9594 14.0082 11.2805C14.2227 11.6015 14.3372 11.979 14.3372 12.3651C14.3366 12.8828 14.1308 13.379 13.7647 13.745C13.3987 14.1111 12.9025 14.3169 12.3848 14.3175Z" fill="#FEFEFE"/>
</g>
</svg>
