<svg width="56" height="47" viewBox="0 0 56 47" fill="none" xmlns="http://www.w3.org/2000/svg">
<g id="78_Weather">
<path id="Vector" d="M55.0404 16.6339C55.0472 13.2045 53.9535 9.86338 51.92 7.10185C49.8865 4.34032 47.0206 2.30414 43.7437 1.29272C40.4668 0.281297 36.9519 0.348014 33.7157 1.48306C30.4795 2.6181 27.693 4.76158 25.7657 7.59828C22.3485 7.93102 19.0926 9.21329 16.3662 11.3001C13.6397 13.3869 11.5516 16.1949 10.3379 19.4066C7.09358 20.2345 4.26345 22.2191 2.37969 24.9873C0.495936 27.7554 -0.311679 31.1164 0.108709 34.4382C0.529097 37.76 2.14853 40.8138 4.66249 43.0254C7.17645 45.237 10.4118 46.454 13.7601 46.4476H43.5737C45.866 46.4556 48.1077 45.774 50.0076 44.4914C51.9075 43.2088 53.3777 41.3844 54.2272 39.2554C55.0768 37.1263 55.2663 34.7909 54.7713 32.5527C54.2762 30.3145 53.1195 28.2769 51.4513 26.7046C53.7672 23.8587 55.0343 20.3031 55.0404 16.6339ZM50.4537 16.6339C50.4515 19.4382 49.4182 22.1437 47.5506 24.2355C46.9651 24.0142 46.3622 23.8419 45.7483 23.7201C45.3083 19.9456 43.7088 16.4003 41.1703 13.5726C38.6317 10.7448 35.2788 8.77372 31.5735 7.93067C33.2343 6.50242 35.2706 5.58156 37.44 5.27773C39.6093 4.9739 41.8202 5.29991 43.8096 6.21693C45.7989 7.13395 47.4828 8.60335 48.6607 10.4502C49.8386 12.297 50.461 14.4435 50.4537 16.6339ZM43.5737 41.8608H13.7601C11.4448 41.8672 9.21313 40.9956 7.51515 39.4216C5.81717 37.8476 4.77915 35.6883 4.61039 33.3791C4.44163 31.07 5.15469 28.7827 6.60579 26.9786C8.05688 25.1744 10.1381 23.9876 12.4297 23.6574C12.867 23.594 13.2767 23.4055 13.6093 23.1146C13.9419 22.8237 14.1834 22.4429 14.3045 22.0179C15.2171 18.8288 17.2516 16.077 20.033 14.2695C22.8144 12.462 26.1554 11.7207 29.4403 12.1821C32.7251 12.6436 35.7326 14.2767 37.9083 16.7805C40.0841 19.2844 41.2817 22.4903 41.2803 25.8074C41.2801 26.1086 41.3393 26.4069 41.4545 26.6852C41.5697 26.9635 41.7386 27.2164 41.9516 27.4294C42.1646 27.6424 42.4175 27.8113 42.6958 27.9265C42.9741 28.0417 43.2724 28.1009 43.5737 28.1007C45.3984 28.1007 47.1483 28.8255 48.4386 30.1158C49.7289 31.4061 50.4537 33.156 50.4537 34.9807C50.4537 36.8054 49.7289 38.5554 48.4386 39.8457C47.1483 41.1359 45.3984 41.8608 43.5737 41.8608Z" fill="#12463A"/>
</g>
</svg>
